<svg width="163" height="160" viewBox="0 0 163 160" fill="none" xmlns="http://www.w3.org/2000/svg">
<path d="M86.8728 42.2676L106.712 46.7636L105.567 51.6256L85.7277 47.1296L86.8728 42.2676ZM69.0842 0H63.9979V19.9967H69.0842V0ZM100.054 16.7293L96.8589 12.8345L81.0409 25.4076L84.2365 29.3024L100.054 16.7293ZM47.6473 46.9727L46.5022 42.1108L26.6631 46.6068L27.8082 51.4687L47.6473 46.9727ZM140.372 87.489V117.497C140.372 140.997 121.012 160 97.0719 160C80.7746 160 64.4772 152.498 52.7602 132.005C36.4894 102.493 15.0792 82.993 25.2783 72.9815C32.4151 65.9762 43.6262 72.9815 53.7987 81.9733V37.4841C53.7987 30.4787 59.391 24.9894 66.5277 24.9894C73.6645 24.9894 79.2567 30.4787 79.2567 37.4841V62.4735C81.2806 60.9835 83.8367 59.9641 86.8992 59.9641C91.9857 59.9641 96.566 62.9701 98.6162 67.9628C101.173 65.95 104.208 64.9567 107.271 64.9567C114.408 64.9567 120 70.446 120 77.4514C122.024 75.9614 124.58 74.942 127.643 74.942C134.78 74.9943 140.372 80.4836 140.372 87.489ZM135.286 87.489C135.286 83.4896 131.717 79.9869 127.643 79.9869C123.568 79.9869 120 83.4896 120 87.489V89.9984H114.914V77.5037C114.914 73.5043 111.346 70.0016 107.271 70.0016C103.197 70.0016 99.6287 73.5043 99.6287 77.5037V85.0057H94.5421V72.511C94.5421 68.5117 90.974 65.009 86.8994 65.009C82.8251 65.009 79.257 68.5117 79.257 72.511V89.9984H74.1704V37.4841C74.1704 33.4847 70.6021 29.982 66.5277 29.982C62.4534 29.982 58.885 33.4847 58.885 37.4841V93.9716C48.1799 82.9668 34.439 70.9688 28.8467 76.4842C23.7604 81.9735 38.0073 96.9776 57.3671 129.966C66.5277 144.473 77.7388 154.955 97.0988 154.955C117.976 154.955 135.286 136.945 135.286 117.471V98.4678V87.489ZM52.6537 25.486L36.8356 12.9129L33.6401 16.8077L49.4581 29.3808L52.6537 25.486Z" fill="white"/>
</svg>
